<?xml version="1.0" encoding="UTF-8" standalone="no"?>
<!DOCTYPE svg PUBLIC "-//W3C//DTD SVG 1.1//EN"
 "http://www.w3.org/Graphics/SVG/1.1/DTD/svg11.dtd">
<!-- Generated by graphviz version 2.38.0 (20140413.2041)
 -->
<!-- Title: godep Pages: 1 -->
<svg width="520pt" height="152pt"
 viewBox="0.00 0.00 519.63 152.00" xmlns="http://www.w3.org/2000/svg" xmlns:xlink="http://www.w3.org/1999/xlink">
<g id="graph0" class="graph" transform="scale(1 1) rotate(0) translate(4 148)">
<title>godep</title>
<polygon fill="white" stroke="none" points="-4,4 -4,-148 515.631,-148 515.631,4 -4,4"/>
<!-- 0 -->
<g id="node1" class="node"><title>0</title>
<ellipse fill="paleturquoise" stroke="paleturquoise" cx="110.066" cy="-72" rx="110.133" ry="18"/>
<text text-anchor="middle" x="110.066" y="-67.8" font-family="Times,serif" font-size="14.00">github.com/codegangsta/gin</text>
</g>
<!-- 1 -->
<g id="node2" class="node"><title>1</title>
<ellipse fill="paleturquoise" stroke="paleturquoise" cx="383.882" cy="-126" rx="107.71" ry="18"/>
<text text-anchor="middle" x="383.882" y="-121.8" font-family="Times,serif" font-size="14.00">github.com/codegangsta/cli</text>
</g>
<!-- 0&#45;&gt;1 -->
<g id="edge1" class="edge"><title>0&#45;&gt;1</title>
<path fill="none" stroke="black" d="M180.713,-85.8362C218.255,-93.2945 264.728,-102.527 303.647,-110.259"/>
<polygon fill="black" stroke="black" points="303.398,-113.778 313.888,-112.293 304.762,-106.912 303.398,-113.778"/>
</g>
<!-- 2 -->
<g id="node3" class="node"><title>2</title>
<ellipse fill="paleturquoise" stroke="paleturquoise" cx="383.882" cy="-72" rx="127.999" ry="18"/>
<text text-anchor="middle" x="383.882" y="-67.8" font-family="Times,serif" font-size="14.00">github.com/codegangsta/envy/lib</text>
</g>
<!-- 0&#45;&gt;2 -->
<g id="edge2" class="edge"><title>0&#45;&gt;2</title>
<path fill="none" stroke="black" d="M220.449,-72C228.735,-72 237.157,-72 245.586,-72"/>
<polygon fill="black" stroke="black" points="245.863,-75.5001 255.863,-72 245.863,-68.5001 245.863,-75.5001"/>
</g>
<!-- 3 -->
<g id="node4" class="node"><title>3</title>
<ellipse fill="paleturquoise" stroke="paleturquoise" cx="383.882" cy="-18" rx="121.719" ry="18"/>
<text text-anchor="middle" x="383.882" y="-13.8" font-family="Times,serif" font-size="14.00">github.com/codegangsta/gin/lib</text>
</g>
<!-- 0&#45;&gt;3 -->
<g id="edge3" class="edge"><title>0&#45;&gt;3</title>
<path fill="none" stroke="black" d="M180.713,-58.1638C217.1,-50.935 261.876,-42.0395 300.033,-34.4591"/>
<polygon fill="black" stroke="black" points="300.967,-37.842 310.094,-32.4605 299.603,-30.9762 300.967,-37.842"/>
</g>
</g>
</svg>
